<mxfile host="app.diagrams.net" agent="Mozilla/5.0 (Macintosh; Intel Mac OS X 10_15_7) AppleWebKit/537.36 (KHTML, like Gecko) Chrome/134.0.0.0 Safari/537.36" version="26.2.13">
  <diagram name="第 1 页" id="FCE1JVr03WrtgmaOr_pR">
    <mxGraphModel dx="1847" dy="1717" grid="1" gridSize="10" guides="1" tooltips="1" connect="1" arrows="1" fold="1" page="1" pageScale="1" pageWidth="827" pageHeight="1169" math="0" shadow="0">
      <root>
        <mxCell id="0" />
        <mxCell id="1" parent="0" />
        <mxCell id="ZRAxAP0Utn_GNNYLxswb-12" style="edgeStyle=orthogonalEdgeStyle;rounded=0;orthogonalLoop=1;jettySize=auto;html=1;exitX=0.5;exitY=1;exitDx=0;exitDy=0;curved=1;" parent="1" source="ZRAxAP0Utn_GNNYLxswb-1" target="ZRAxAP0Utn_GNNYLxswb-5" edge="1">
          <mxGeometry relative="1" as="geometry" />
        </mxCell>
        <mxCell id="ZRAxAP0Utn_GNNYLxswb-39" style="edgeStyle=orthogonalEdgeStyle;rounded=0;orthogonalLoop=1;jettySize=auto;html=1;exitX=0.25;exitY=1;exitDx=0;exitDy=0;curved=1;" parent="1" source="ZRAxAP0Utn_GNNYLxswb-1" target="ZRAxAP0Utn_GNNYLxswb-38" edge="1">
          <mxGeometry relative="1" as="geometry" />
        </mxCell>
        <mxCell id="ZRAxAP0Utn_GNNYLxswb-1" value="HomePage" style="rounded=1;whiteSpace=wrap;html=1;" parent="1" vertex="1">
          <mxGeometry x="160" y="-80" width="120" height="40" as="geometry" />
        </mxCell>
        <mxCell id="ZRAxAP0Utn_GNNYLxswb-18" style="edgeStyle=orthogonalEdgeStyle;rounded=0;orthogonalLoop=1;jettySize=auto;html=1;exitX=0.5;exitY=1;exitDx=0;exitDy=0;entryX=0.5;entryY=0;entryDx=0;entryDy=0;curved=1;" parent="1" source="ZRAxAP0Utn_GNNYLxswb-2" target="ZRAxAP0Utn_GNNYLxswb-8" edge="1">
          <mxGeometry relative="1" as="geometry" />
        </mxCell>
        <mxCell id="ZRAxAP0Utn_GNNYLxswb-20" style="edgeStyle=orthogonalEdgeStyle;rounded=0;orthogonalLoop=1;jettySize=auto;html=1;exitX=0.5;exitY=1;exitDx=0;exitDy=0;entryX=0.25;entryY=1;entryDx=0;entryDy=0;curved=1;" parent="1" source="ZRAxAP0Utn_GNNYLxswb-2" target="ZRAxAP0Utn_GNNYLxswb-3" edge="1">
          <mxGeometry relative="1" as="geometry" />
        </mxCell>
        <mxCell id="ZRAxAP0Utn_GNNYLxswb-2" value="Showroom 1" style="rounded=1;whiteSpace=wrap;html=1;" parent="1" vertex="1">
          <mxGeometry x="-40" y="160" width="120" height="40" as="geometry" />
        </mxCell>
        <mxCell id="ZRAxAP0Utn_GNNYLxswb-21" style="edgeStyle=orthogonalEdgeStyle;rounded=0;orthogonalLoop=1;jettySize=auto;html=1;exitX=0.75;exitY=1;exitDx=0;exitDy=0;entryX=0.25;entryY=1;entryDx=0;entryDy=0;curved=1;" parent="1" source="ZRAxAP0Utn_GNNYLxswb-3" target="ZRAxAP0Utn_GNNYLxswb-4" edge="1">
          <mxGeometry relative="1" as="geometry" />
        </mxCell>
        <mxCell id="ZRAxAP0Utn_GNNYLxswb-3" value="Showroom 2" style="rounded=1;whiteSpace=wrap;html=1;" parent="1" vertex="1">
          <mxGeometry x="120" y="160" width="120" height="40" as="geometry" />
        </mxCell>
        <mxCell id="ZRAxAP0Utn_GNNYLxswb-26" style="edgeStyle=orthogonalEdgeStyle;rounded=0;orthogonalLoop=1;jettySize=auto;html=1;exitX=0.75;exitY=0;exitDx=0;exitDy=0;entryX=0.75;entryY=0;entryDx=0;entryDy=0;curved=1;" parent="1" source="ZRAxAP0Utn_GNNYLxswb-4" target="ZRAxAP0Utn_GNNYLxswb-2" edge="1">
          <mxGeometry relative="1" as="geometry" />
        </mxCell>
        <mxCell id="UkzblR-_nwrGP0QUindk-5" style="edgeStyle=orthogonalEdgeStyle;rounded=0;orthogonalLoop=1;jettySize=auto;html=1;exitX=1;exitY=0.25;exitDx=0;exitDy=0;entryX=0.5;entryY=1;entryDx=0;entryDy=0;elbow=vertical;curved=1;" parent="1" source="ZRAxAP0Utn_GNNYLxswb-4" target="ZRAxAP0Utn_GNNYLxswb-7" edge="1">
          <mxGeometry relative="1" as="geometry" />
        </mxCell>
        <mxCell id="ZRAxAP0Utn_GNNYLxswb-4" value="Showroom N" style="rounded=1;whiteSpace=wrap;html=1;" parent="1" vertex="1">
          <mxGeometry x="280" y="160" width="120" height="40" as="geometry" />
        </mxCell>
        <mxCell id="ZRAxAP0Utn_GNNYLxswb-15" style="edgeStyle=orthogonalEdgeStyle;rounded=0;orthogonalLoop=1;jettySize=auto;html=1;exitX=0.5;exitY=1;exitDx=0;exitDy=0;curved=1;" parent="1" source="ZRAxAP0Utn_GNNYLxswb-5" target="ZRAxAP0Utn_GNNYLxswb-2" edge="1">
          <mxGeometry relative="1" as="geometry" />
        </mxCell>
        <mxCell id="ZRAxAP0Utn_GNNYLxswb-23" style="edgeStyle=orthogonalEdgeStyle;rounded=0;orthogonalLoop=1;jettySize=auto;html=1;exitX=0.75;exitY=1;exitDx=0;exitDy=0;entryX=0.25;entryY=1;entryDx=0;entryDy=0;curved=1;" parent="1" source="ZRAxAP0Utn_GNNYLxswb-5" target="ZRAxAP0Utn_GNNYLxswb-6" edge="1">
          <mxGeometry relative="1" as="geometry" />
        </mxCell>
        <mxCell id="ZRAxAP0Utn_GNNYLxswb-5" value="Showroom Cate1" style="rounded=1;whiteSpace=wrap;html=1;" parent="1" vertex="1">
          <mxGeometry x="120" y="40" width="120" height="40" as="geometry" />
        </mxCell>
        <mxCell id="ZRAxAP0Utn_GNNYLxswb-24" style="edgeStyle=orthogonalEdgeStyle;rounded=0;orthogonalLoop=1;jettySize=auto;html=1;exitX=0.75;exitY=1;exitDx=0;exitDy=0;entryX=0.25;entryY=1;entryDx=0;entryDy=0;curved=1;" parent="1" source="ZRAxAP0Utn_GNNYLxswb-6" target="ZRAxAP0Utn_GNNYLxswb-7" edge="1">
          <mxGeometry relative="1" as="geometry" />
        </mxCell>
        <mxCell id="ZRAxAP0Utn_GNNYLxswb-6" value="Showroom Cate2" style="rounded=1;whiteSpace=wrap;html=1;" parent="1" vertex="1">
          <mxGeometry x="280" y="40" width="120" height="40" as="geometry" />
        </mxCell>
        <mxCell id="ZRAxAP0Utn_GNNYLxswb-25" style="edgeStyle=orthogonalEdgeStyle;rounded=0;orthogonalLoop=1;jettySize=auto;html=1;exitX=0.25;exitY=0;exitDx=0;exitDy=0;entryX=0.75;entryY=0;entryDx=0;entryDy=0;curved=1;" parent="1" source="ZRAxAP0Utn_GNNYLxswb-7" target="ZRAxAP0Utn_GNNYLxswb-5" edge="1">
          <mxGeometry relative="1" as="geometry" />
        </mxCell>
        <mxCell id="ZRAxAP0Utn_GNNYLxswb-7" value="Showroom CateN" style="rounded=1;whiteSpace=wrap;html=1;" parent="1" vertex="1">
          <mxGeometry x="440" y="40" width="120" height="40" as="geometry" />
        </mxCell>
        <mxCell id="ZRAxAP0Utn_GNNYLxswb-36" style="edgeStyle=orthogonalEdgeStyle;rounded=0;orthogonalLoop=1;jettySize=auto;html=1;exitX=0.25;exitY=0;exitDx=0;exitDy=0;entryX=0;entryY=0.5;entryDx=0;entryDy=0;curved=1;" parent="1" source="ZRAxAP0Utn_GNNYLxswb-8" target="ZRAxAP0Utn_GNNYLxswb-2" edge="1">
          <mxGeometry relative="1" as="geometry" />
        </mxCell>
        <mxCell id="ZRAxAP0Utn_GNNYLxswb-8" value="PDP 1" style="rounded=1;whiteSpace=wrap;html=1;" parent="1" vertex="1">
          <mxGeometry x="-200" y="280" width="120" height="40" as="geometry" />
        </mxCell>
        <mxCell id="ZRAxAP0Utn_GNNYLxswb-9" value="PDP 2" style="rounded=1;whiteSpace=wrap;html=1;" parent="1" vertex="1">
          <mxGeometry x="-40" y="280" width="120" height="40" as="geometry" />
        </mxCell>
        <mxCell id="ZRAxAP0Utn_GNNYLxswb-10" value="PDP N" style="rounded=1;whiteSpace=wrap;html=1;" parent="1" vertex="1">
          <mxGeometry x="120" y="280" width="120" height="40" as="geometry" />
        </mxCell>
        <mxCell id="ZRAxAP0Utn_GNNYLxswb-37" value="HomePage -&amp;gt; Showroom Cate:&lt;div&gt;All Root CPV in HomePage&lt;/div&gt;&lt;div&gt;&lt;br&gt;&lt;/div&gt;&lt;div&gt;Showroom Cate -&amp;gt; Showroom:&lt;/div&gt;&lt;div&gt;CPV Predict Random&lt;/div&gt;&lt;div&gt;&lt;br&gt;&lt;/div&gt;&lt;div&gt;Showroom A-Z -&amp;gt; Showroom:&lt;/div&gt;&lt;div&gt;All Showrooms into A-Z&lt;/div&gt;&lt;div&gt;&lt;br&gt;&lt;/div&gt;&lt;div&gt;Showoom -&amp;gt; PDP:&lt;/div&gt;&lt;div&gt;Search Result&lt;/div&gt;&lt;div&gt;&lt;br&gt;&lt;/div&gt;&lt;div&gt;PDP -&amp;gt; Showroom:&lt;/div&gt;&lt;div&gt;Keyword Relation&lt;/div&gt;&lt;div&gt;&lt;br&gt;&lt;/div&gt;&lt;div&gt;Showroom -&amp;gt; Showroom:&lt;/div&gt;&lt;div&gt;Same CPV, 20 links for each, mod&lt;/div&gt;" style="text;html=1;align=left;verticalAlign=middle;whiteSpace=wrap;rounded=0;" parent="1" vertex="1">
          <mxGeometry x="680" y="-100" width="230" height="270" as="geometry" />
        </mxCell>
        <mxCell id="UkzblR-_nwrGP0QUindk-2" style="edgeStyle=orthogonalEdgeStyle;rounded=0;orthogonalLoop=1;jettySize=auto;html=1;exitX=0.25;exitY=1;exitDx=0;exitDy=0;entryX=0.25;entryY=0;entryDx=0;entryDy=0;curved=1;" parent="1" source="ZRAxAP0Utn_GNNYLxswb-38" target="ZRAxAP0Utn_GNNYLxswb-2" edge="1">
          <mxGeometry relative="1" as="geometry" />
        </mxCell>
        <mxCell id="ZRAxAP0Utn_GNNYLxswb-38" value="Showroom A-Z" style="rounded=1;whiteSpace=wrap;html=1;" parent="1" vertex="1">
          <mxGeometry x="-80" y="40" width="120" height="40" as="geometry" />
        </mxCell>
        <mxCell id="TeHj9TKll05nfbYEzgIO-18" style="edgeStyle=orthogonalEdgeStyle;rounded=0;orthogonalLoop=1;jettySize=auto;html=1;exitX=1;exitY=0.5;exitDx=0;exitDy=0;entryX=0;entryY=0.5;entryDx=0;entryDy=0;" edge="1" parent="1" source="UkzblR-_nwrGP0QUindk-6" target="TeHj9TKll05nfbYEzgIO-1">
          <mxGeometry relative="1" as="geometry" />
        </mxCell>
        <mxCell id="UkzblR-_nwrGP0QUindk-6" value="PDP Title, Desc" style="rounded=1;whiteSpace=wrap;html=1;" parent="1" vertex="1">
          <mxGeometry x="-320" y="440" width="120" height="40" as="geometry" />
        </mxCell>
        <mxCell id="TeHj9TKll05nfbYEzgIO-20" style="edgeStyle=orthogonalEdgeStyle;rounded=0;orthogonalLoop=1;jettySize=auto;html=1;exitX=0.5;exitY=1;exitDx=0;exitDy=0;entryX=0.5;entryY=0;entryDx=0;entryDy=0;" edge="1" parent="1" source="UkzblR-_nwrGP0QUindk-7" target="UkzblR-_nwrGP0QUindk-11">
          <mxGeometry relative="1" as="geometry" />
        </mxCell>
        <mxCell id="UkzblR-_nwrGP0QUindk-7" value="Keyword,Rate" style="rounded=1;whiteSpace=wrap;html=1;" parent="1" vertex="1">
          <mxGeometry y="440" width="120" height="40" as="geometry" />
        </mxCell>
        <mxCell id="UkzblR-_nwrGP0QUindk-8" value="CPV Predict" style="rounded=1;whiteSpace=wrap;html=1;" parent="1" vertex="1">
          <mxGeometry y="560" width="120" height="40" as="geometry" />
        </mxCell>
        <mxCell id="TeHj9TKll05nfbYEzgIO-22" style="edgeStyle=orthogonalEdgeStyle;rounded=0;orthogonalLoop=1;jettySize=auto;html=1;exitX=1;exitY=0.5;exitDx=0;exitDy=0;entryX=0;entryY=0.5;entryDx=0;entryDy=0;" edge="1" parent="1" source="UkzblR-_nwrGP0QUindk-9" target="UkzblR-_nwrGP0QUindk-8">
          <mxGeometry relative="1" as="geometry" />
        </mxCell>
        <mxCell id="UkzblR-_nwrGP0QUindk-9" value="90% PDP with Least Keyword Num" style="rounded=1;whiteSpace=wrap;html=1;" parent="1" vertex="1">
          <mxGeometry x="-160" y="560" width="120" height="40" as="geometry" />
        </mxCell>
        <mxCell id="TeHj9TKll05nfbYEzgIO-21" style="edgeStyle=orthogonalEdgeStyle;rounded=0;orthogonalLoop=1;jettySize=auto;html=1;exitX=1;exitY=0.5;exitDx=0;exitDy=0;entryX=0;entryY=0.5;entryDx=0;entryDy=0;" edge="1" parent="1" source="UkzblR-_nwrGP0QUindk-11" target="UkzblR-_nwrGP0QUindk-9">
          <mxGeometry relative="1" as="geometry" />
        </mxCell>
        <mxCell id="UkzblR-_nwrGP0QUindk-11" value="Keyword&#39;s PDP Num &amp;gt;=33" style="rounded=1;whiteSpace=wrap;html=1;" parent="1" vertex="1">
          <mxGeometry x="-320" y="560" width="120" height="40" as="geometry" />
        </mxCell>
        <mxCell id="TeHj9TKll05nfbYEzgIO-19" style="edgeStyle=orthogonalEdgeStyle;rounded=0;orthogonalLoop=1;jettySize=auto;html=1;exitX=1;exitY=0.5;exitDx=0;exitDy=0;entryX=0;entryY=0.5;entryDx=0;entryDy=0;" edge="1" parent="1" source="TeHj9TKll05nfbYEzgIO-1" target="UkzblR-_nwrGP0QUindk-7">
          <mxGeometry relative="1" as="geometry" />
        </mxCell>
        <mxCell id="TeHj9TKll05nfbYEzgIO-1" value="Title Length &amp;gt; 2 &amp;amp;&lt;div&gt;Desc Length &amp;gt; 30&lt;/div&gt;" style="rounded=1;whiteSpace=wrap;html=1;" vertex="1" parent="1">
          <mxGeometry x="-160" y="440" width="120" height="40" as="geometry" />
        </mxCell>
        <mxCell id="TeHj9TKll05nfbYEzgIO-2" value="Keyword" style="swimlane;fontStyle=0;childLayout=stackLayout;horizontal=1;startSize=30;horizontalStack=0;resizeParent=1;resizeParentMax=0;resizeLast=0;collapsible=1;marginBottom=0;whiteSpace=wrap;html=1;" vertex="1" parent="1">
          <mxGeometry x="160" y="400" width="120" height="120" as="geometry" />
        </mxCell>
        <mxCell id="TeHj9TKll05nfbYEzgIO-3" value="PDP1 Rate1" style="text;strokeColor=none;fillColor=none;align=left;verticalAlign=middle;spacingLeft=4;spacingRight=4;overflow=hidden;points=[[0,0.5],[1,0.5]];portConstraint=eastwest;rotatable=0;whiteSpace=wrap;html=1;" vertex="1" parent="TeHj9TKll05nfbYEzgIO-2">
          <mxGeometry y="30" width="120" height="30" as="geometry" />
        </mxCell>
        <mxCell id="TeHj9TKll05nfbYEzgIO-4" value="PDP2 Rate2" style="text;strokeColor=none;fillColor=none;align=left;verticalAlign=middle;spacingLeft=4;spacingRight=4;overflow=hidden;points=[[0,0.5],[1,0.5]];portConstraint=eastwest;rotatable=0;whiteSpace=wrap;html=1;" vertex="1" parent="TeHj9TKll05nfbYEzgIO-2">
          <mxGeometry y="60" width="120" height="30" as="geometry" />
        </mxCell>
        <mxCell id="TeHj9TKll05nfbYEzgIO-5" value="PDP3 Rate3" style="text;strokeColor=none;fillColor=none;align=left;verticalAlign=middle;spacingLeft=4;spacingRight=4;overflow=hidden;points=[[0,0.5],[1,0.5]];portConstraint=eastwest;rotatable=0;whiteSpace=wrap;html=1;" vertex="1" parent="TeHj9TKll05nfbYEzgIO-2">
          <mxGeometry y="90" width="120" height="30" as="geometry" />
        </mxCell>
        <mxCell id="TeHj9TKll05nfbYEzgIO-6" value="CPV" style="swimlane;fontStyle=0;childLayout=stackLayout;horizontal=1;startSize=30;horizontalStack=0;resizeParent=1;resizeParentMax=0;resizeLast=0;collapsible=1;marginBottom=0;whiteSpace=wrap;html=1;" vertex="1" parent="1">
          <mxGeometry x="160" y="560" width="120" height="120" as="geometry" />
        </mxCell>
        <mxCell id="TeHj9TKll05nfbYEzgIO-7" value="Keyword1" style="text;strokeColor=none;fillColor=none;align=left;verticalAlign=middle;spacingLeft=4;spacingRight=4;overflow=hidden;points=[[0,0.5],[1,0.5]];portConstraint=eastwest;rotatable=0;whiteSpace=wrap;html=1;" vertex="1" parent="TeHj9TKll05nfbYEzgIO-6">
          <mxGeometry y="30" width="120" height="30" as="geometry" />
        </mxCell>
        <mxCell id="TeHj9TKll05nfbYEzgIO-8" value="Keyword2" style="text;strokeColor=none;fillColor=none;align=left;verticalAlign=middle;spacingLeft=4;spacingRight=4;overflow=hidden;points=[[0,0.5],[1,0.5]];portConstraint=eastwest;rotatable=0;whiteSpace=wrap;html=1;" vertex="1" parent="TeHj9TKll05nfbYEzgIO-6">
          <mxGeometry y="60" width="120" height="30" as="geometry" />
        </mxCell>
        <mxCell id="TeHj9TKll05nfbYEzgIO-9" value="Keyword3" style="text;strokeColor=none;fillColor=none;align=left;verticalAlign=middle;spacingLeft=4;spacingRight=4;overflow=hidden;points=[[0,0.5],[1,0.5]];portConstraint=eastwest;rotatable=0;whiteSpace=wrap;html=1;" vertex="1" parent="TeHj9TKll05nfbYEzgIO-6">
          <mxGeometry y="90" width="120" height="30" as="geometry" />
        </mxCell>
        <mxCell id="TeHj9TKll05nfbYEzgIO-10" value="Keyword1" style="swimlane;fontStyle=0;childLayout=stackLayout;horizontal=1;startSize=30;horizontalStack=0;resizeParent=1;resizeParentMax=0;resizeLast=0;collapsible=1;marginBottom=0;whiteSpace=wrap;html=1;" vertex="1" parent="1">
          <mxGeometry x="320" y="560" width="120" height="120" as="geometry" />
        </mxCell>
        <mxCell id="TeHj9TKll05nfbYEzgIO-11" value="Keyword2" style="text;strokeColor=none;fillColor=none;align=left;verticalAlign=middle;spacingLeft=4;spacingRight=4;overflow=hidden;points=[[0,0.5],[1,0.5]];portConstraint=eastwest;rotatable=0;whiteSpace=wrap;html=1;" vertex="1" parent="TeHj9TKll05nfbYEzgIO-10">
          <mxGeometry y="30" width="120" height="30" as="geometry" />
        </mxCell>
        <mxCell id="TeHj9TKll05nfbYEzgIO-12" value="Keyword3" style="text;strokeColor=none;fillColor=none;align=left;verticalAlign=middle;spacingLeft=4;spacingRight=4;overflow=hidden;points=[[0,0.5],[1,0.5]];portConstraint=eastwest;rotatable=0;whiteSpace=wrap;html=1;" vertex="1" parent="TeHj9TKll05nfbYEzgIO-10">
          <mxGeometry y="60" width="120" height="30" as="geometry" />
        </mxCell>
        <mxCell id="TeHj9TKll05nfbYEzgIO-13" value="Keyword4" style="text;strokeColor=none;fillColor=none;align=left;verticalAlign=middle;spacingLeft=4;spacingRight=4;overflow=hidden;points=[[0,0.5],[1,0.5]];portConstraint=eastwest;rotatable=0;whiteSpace=wrap;html=1;" vertex="1" parent="TeHj9TKll05nfbYEzgIO-10">
          <mxGeometry y="90" width="120" height="30" as="geometry" />
        </mxCell>
        <mxCell id="TeHj9TKll05nfbYEzgIO-14" value="PDP" style="swimlane;fontStyle=0;childLayout=stackLayout;horizontal=1;startSize=30;horizontalStack=0;resizeParent=1;resizeParentMax=0;resizeLast=0;collapsible=1;marginBottom=0;whiteSpace=wrap;html=1;" vertex="1" parent="1">
          <mxGeometry x="480" y="560" width="120" height="120" as="geometry" />
        </mxCell>
        <mxCell id="TeHj9TKll05nfbYEzgIO-15" value="Keyword1" style="text;strokeColor=none;fillColor=none;align=left;verticalAlign=middle;spacingLeft=4;spacingRight=4;overflow=hidden;points=[[0,0.5],[1,0.5]];portConstraint=eastwest;rotatable=0;whiteSpace=wrap;html=1;" vertex="1" parent="TeHj9TKll05nfbYEzgIO-14">
          <mxGeometry y="30" width="120" height="30" as="geometry" />
        </mxCell>
        <mxCell id="TeHj9TKll05nfbYEzgIO-16" value="Keyword2" style="text;strokeColor=none;fillColor=none;align=left;verticalAlign=middle;spacingLeft=4;spacingRight=4;overflow=hidden;points=[[0,0.5],[1,0.5]];portConstraint=eastwest;rotatable=0;whiteSpace=wrap;html=1;" vertex="1" parent="TeHj9TKll05nfbYEzgIO-14">
          <mxGeometry y="60" width="120" height="30" as="geometry" />
        </mxCell>
        <mxCell id="TeHj9TKll05nfbYEzgIO-17" value="Keyword3" style="text;strokeColor=none;fillColor=none;align=left;verticalAlign=middle;spacingLeft=4;spacingRight=4;overflow=hidden;points=[[0,0.5],[1,0.5]];portConstraint=eastwest;rotatable=0;whiteSpace=wrap;html=1;" vertex="1" parent="TeHj9TKll05nfbYEzgIO-14">
          <mxGeometry y="90" width="120" height="30" as="geometry" />
        </mxCell>
        <mxCell id="TeHj9TKll05nfbYEzgIO-23" value="" style="rounded=0;whiteSpace=wrap;html=1;" vertex="1" parent="1">
          <mxGeometry x="680" y="200" width="320" height="210" as="geometry" />
        </mxCell>
        <mxCell id="TeHj9TKll05nfbYEzgIO-24" value="Showroom" style="ellipse;whiteSpace=wrap;html=1;" vertex="1" parent="1">
          <mxGeometry x="690" y="220" width="90" height="30" as="geometry" />
        </mxCell>
        <mxCell id="TeHj9TKll05nfbYEzgIO-28" value="Showroom" style="ellipse;whiteSpace=wrap;html=1;" vertex="1" parent="1">
          <mxGeometry x="795" y="220" width="90" height="30" as="geometry" />
        </mxCell>
        <mxCell id="TeHj9TKll05nfbYEzgIO-29" value="Showroom" style="ellipse;whiteSpace=wrap;html=1;" vertex="1" parent="1">
          <mxGeometry x="690" y="285" width="90" height="30" as="geometry" />
        </mxCell>
        <mxCell id="TeHj9TKll05nfbYEzgIO-30" value="Showroom" style="ellipse;whiteSpace=wrap;html=1;" vertex="1" parent="1">
          <mxGeometry x="795" y="285" width="90" height="30" as="geometry" />
        </mxCell>
        <mxCell id="TeHj9TKll05nfbYEzgIO-31" value="Showroom" style="ellipse;whiteSpace=wrap;html=1;" vertex="1" parent="1">
          <mxGeometry x="690" y="350" width="90" height="30" as="geometry" />
        </mxCell>
        <mxCell id="TeHj9TKll05nfbYEzgIO-32" value="Showroom" style="ellipse;whiteSpace=wrap;html=1;" vertex="1" parent="1">
          <mxGeometry x="795" y="350" width="90" height="30" as="geometry" />
        </mxCell>
        <mxCell id="TeHj9TKll05nfbYEzgIO-33" value="Showroom" style="ellipse;whiteSpace=wrap;html=1;" vertex="1" parent="1">
          <mxGeometry x="900" y="350" width="90" height="30" as="geometry" />
        </mxCell>
        <mxCell id="TeHj9TKll05nfbYEzgIO-34" value="Showroom" style="ellipse;whiteSpace=wrap;html=1;" vertex="1" parent="1">
          <mxGeometry x="900" y="285" width="90" height="30" as="geometry" />
        </mxCell>
        <mxCell id="TeHj9TKll05nfbYEzgIO-35" value="Showroom" style="ellipse;whiteSpace=wrap;html=1;" vertex="1" parent="1">
          <mxGeometry x="900" y="220" width="90" height="30" as="geometry" />
        </mxCell>
      </root>
    </mxGraphModel>
  </diagram>
</mxfile>
